<svg width="420" height="88" viewBox="0 0 420 88" fill="none" xmlns="http://www.w3.org/2000/svg" role="img" aria-label="Prizmbet - predictions on PRIZM">
  <defs>
    <linearGradient id="pb_wordmark" x1="76" y1="20" x2="330" y2="68" gradientUnits="userSpaceOnUse">
      <stop stop-color="#F6F2FF"/>
      <stop offset="0.55" stop-color="#D8CCFF"/>
      <stop offset="1" stop-color="#B776FF"/>
    </linearGradient>
    <linearGradient id="pb_mark" x1="10" y1="12" x2="66" y2="76" gradientUnits="userSpaceOnUse">
      <stop stop-color="#C96CFF"/>
      <stop offset="1" stop-color="#7A3CD6"/>
    </linearGradient>
    <filter id="pb_glow" x="-6" y="-6" width="432" height="100" filterUnits="userSpaceOnUse" color-interpolation-filters="sRGB">
      <feGaussianBlur stdDeviation="3.5" result="blur"/>
      <feColorMatrix in="blur" type="matrix" values="0 0 0 0 0.388 0 0 0 0 0.4 0 0 0 0 0.945 0 0 0 0.18 0"/>
      <feBlend in="SourceGraphic" mode="normal"/>
    </filter>
  </defs>
  <g filter="url(#pb_glow)">
    <g transform="translate(6 12) scale(0.117)">
      <path fill-rule="evenodd" clip-rule="evenodd" d="M307.003 407.434L506.308 62.2829H251.727L283.647 117.559H211.762L143.77 0H614.265L513.834 174.133L613.227 231.485L582.086 285.463L482.693 228.111L469.458 250.948L567.294 310.636L536.152 364.615L437.797 305.705L307.003 532C262.107 454.406 218.509 380.704 175.43 305.965L77.0751 364.874L45.9337 310.896L143.77 251.208L130.535 228.371L31.1415 285.463L0 231.485L99.3932 174.133C67.2137 118.338 33.2176 57.6117 0 0H71.8849L307.003 407.434Z" fill="url(#pb_mark)"/>
    </g>
    <text x="86" y="40" fill="url(#pb_wordmark)" font-family="Orbitron, 'Outfit', 'Inter', Arial, sans-serif" font-size="26" font-weight="800" letter-spacing="4.6">PRIZMBET</text>
    <text x="88" y="64" fill="#8F97B7" font-family="'Inter', Arial, sans-serif" font-size="11" font-weight="600" letter-spacing="3">PREDICTIONS ON PRIZM</text>
  </g>
</svg>
