<svg width="615" height="532" viewBox="0 0 615 532" fill="none" xmlns="http://www.w3.org/2000/svg">
<g clip-path="url(#clip0)">
<path fill-rule="evenodd" clip-rule="evenodd" d="M307.003 407.434L506.308 62.2829H251.727L283.647 117.559H211.762L143.77 0H614.265L513.834 174.133L613.227 231.485L582.086 285.463L482.693 228.111L469.458 250.948L567.294 310.636L536.152 364.615L437.797 305.705L307.003 532C262.107 454.406 218.509 380.704 175.43 305.965L77.0751 364.874L45.9337 310.896L143.77 251.208L130.535 228.371L31.1415 285.463L0 231.485L99.3932 174.133C67.2137 118.338 33.2176 57.6117 0 0H71.8849L307.003 407.434Z" fill="#903EBC"/>
</g>
<defs>
<clipPath id="clip0">
<rect width="614.006" height="532" fill="white"/>
</clipPath>
</defs>
</svg>
